<svg id="line" height="512" viewBox="0 0 64 64" width="512" xmlns="http://www.w3.org/2000/svg"><path d="m62.258 19.957-8.04-6.511 1.672 7.865z" fill="#c4a2fc"/><path d="m55.327 23.476a1 1 0 0 1 -1.186-.771l-2.063-9.705h-24.078a3 3 0 0 0 -3 3v44a3 3 0 0 0 3 3h32a3 3 0 0 0 3-3v-38.155zm-25.327-2.476h20a1 1 0 0 1 0 2h-20a1 1 0 0 1 0-2zm0 8h23a1 1 0 0 1 0 2h-23a1 1 0 0 1 0-2zm8 26h-8a1 1 0 0 1 0-2h8a1 1 0 0 1 0 2zm-9-9a1 1 0 0 1 1-1h23a1 1 0 0 1 0 2h-23a1 1 0 0 1 -1-1zm28.707 3.707-8 8a1 1 0 0 1 -1.414 0l-4-4a1 1 0 0 1 1.414-1.414l3.293 3.293 7.293-7.293a1 1 0 0 1 1.414 1.414zm.293-10.707h-28a1 1 0 0 1 0-2h28a1 1 0 0 1 0 2z" fill="#c4a2fc"/><g fill="#151a6a"><path d="m36 8h-2a3 3 0 0 0 -3-3h-6.1a5 5 0 0 0 -9.8 0h-6.1a3 3 0 0 0 -3 3h-2a3 3 0 0 0 -3 3v35a3 3 0 0 0 3 3h32a3 3 0 0 0 3-3v-35a3 3 0 0 0 -3-3zm-28 0a1 1 0 0 1 1-1h7a1 1 0 0 0 1-1 3 3 0 0 1 6 0 1 1 0 0 0 1 1h7a1 1 0 0 1 1 1v2a1 1 0 0 1 -1 1h-22a1 1 0 0 1 -1-1zm29 38a1 1 0 0 1 -1 1h-32a1 1 0 0 1 -1-1v-35a1 1 0 0 1 1-1h2a3 3 0 0 0 3 3h22a3 3 0 0 0 3-3h2a1 1 0 0 1 1 1z"/><path d="m26 38h-19a1 1 0 0 0 0 2h19a1 1 0 0 0 0-2z"/><path d="m33 29h-26a1 1 0 0 0 0 2h26a1 1 0 0 0 0-2z"/><path d="m7 22h19a1 1 0 0 0 0-2h-19a1 1 0 0 0 0 2z"/></g></svg>